<svg width="250" height="200" viewBox="0 0 250 200" fill="none" xmlns="http://www.w3.org/2000/svg">
  <rect width="250" height="200" rx="10" fill="#F3F4F6" />
  <rect x="50" y="50" width="70" height="100" rx="5" fill="#E0E7FF" stroke="#4F46E5" stroke-width="2" />
  <rect x="130" y="50" width="70" height="100" rx="5" fill="#E0E7FF" stroke="#4F46E5" stroke-width="2" />
  <path d="M120 100H130" stroke="#4F46E5" stroke-width="2" />
  <path d="M125 95L130 100L125 105" stroke="#4F46E5" stroke-width="2" />
  <rect x="60" y="70" width="50" height="8" rx="2" fill="#6366F1" />
  <rect x="60" y="90" width="40" height="8" rx="2" fill="#6366F1" />
  <rect x="60" y="110" width="30" height="8" rx="2" fill="#6366F1" />
  <rect x="140" y="70" width="50" height="8" rx="2" fill="#6366F1" />
  <rect x="140" y="90" width="40" height="8" rx="2" fill="#6366F1" />
  <rect x="140" y="110" width="30" height="8" rx="2" fill="#6366F1" />
  <circle cx="85" cy="140" r="5" fill="#4F46E5" />
  <circle cx="165" cy="140" r="5" fill="#4F46E5" />
  <path d="M60 160L70 170L80 160L90 170L100 160L110 170" stroke="#4F46E5" stroke-width="2" />
  <path d="M140 160L150 170L160 160L170 170L180 160L190 170" stroke="#4F46E5" stroke-width="2" />
</svg> 